<svg xmlns="http://www.w3.org/2000/svg" xmlns:xlink="http://www.w3.org/1999/xlink" width="68" height="37" viewBox="0 0 68 37">
    <defs>
        <path id="prefix__a" d="M0 37L67.813 37 67.813 0.089 0 0.089z"/>
        <path id="prefix__c" d="M.06.028v4.957h21.928c-.207-.79-.319-1.621-.319-2.479 0-.857.112-1.687.319-2.478H.06z"/>
        <linearGradient id="prefix__e" x1="0%" x2="100%" y1="50%" y2="50%">
            <stop offset="0%" stop-color="#24C8D1"/>
            <stop offset="100%" stop-color="#0274C6"/>
        </linearGradient>
    </defs>
    <g fill="none" fill-rule="evenodd">
        <path fill="#0274C7" d="M63.222 19.978c-1.964 0-3.414.727-4.405 1.754v-1.38h-5.685v15.494h5.685v-7.544c0-1.715 1.188-3.523 2.437-3.523.656 0 .874.499.874 1.278v9.79h5.685V24.871c0-2.65-1.155-4.894-4.591-4.894"/>
        <path fill="#25C9D1" d="M18.835 19.978c-2.061 0-3.81.935-4.685 2.463-.687-1.808-2.312-2.463-4.217-2.463-1.728 0-3.235.659-4.248 1.772v-1.398H0v15.494h5.685v-7.482c0-1.964 1.312-3.585 2.405-3.585.656 0 .875.53.875 1.465v9.602h5.622v-7.482c0-1.964 1.312-3.585 2.405-3.585.656 0 .875.53.875 1.465v9.602h5.685V25.278c0-3.523-1.624-5.3-4.717-5.3"/>
        <mask id="prefix__b" fill="#fff">
            <use xlink:href="#prefix__a"/>
        </mask>
        <path fill="#0274C7" d="M44.668 35.846L50.353 35.846 50.353 20.352 44.668 20.352zM47.51 6.167c1.794 0 3.248 1.452 3.248 3.243 0 1.79-1.454 3.242-3.248 3.242-1.794 0-3.248-1.452-3.248-3.242s1.454-3.243 3.248-3.243M38.17 9.41c0 5.148 4.182 9.32 9.34 9.32 5.158 0 9.34-4.172 9.34-9.32 0-5.148-4.182-9.322-9.34-9.322-5.158 0-9.34 4.174-9.34 9.322" mask="url(#prefix__b)"/>
        <path fill="#25C9D1" d="M5.685 11.841h4.873V6.978H5.685v4.863zM0 17.515h16.242V1.305H0v16.21z" mask="url(#prefix__b)"/>
        <g transform="translate(17 8)">
            <mask id="prefix__d" fill="#fff">
                <use xlink:href="#prefix__c"/>
            </mask>
            <path fill="#1DCAD3" d="M.061 4.985L1.117 4.985 1.117.028.061.028zM1.118 4.985L1.341 4.985 1.341.028 1.118.028z" mask="url(#prefix__d)"/>
            <path fill="#1DC9D3" d="M1.341 4.985L1.565 4.985 1.565 0.028 1.341 0.028z" mask="url(#prefix__d)"/>
            <path fill="#1CC8D3" d="M1.565 4.985L1.789 4.985 1.789 0.028 1.565 0.028z" mask="url(#prefix__d)"/>
            <path fill="#1CC7D3" d="M1.789 4.985L2.012 4.985 2.012 0.028 1.789 0.028z" mask="url(#prefix__d)"/>
            <path fill="#1CC6D3" d="M2.012 4.985L2.236 4.985 2.236 0.028 2.012 0.028z" mask="url(#prefix__d)"/>
            <path fill="#1BC5D2" d="M2.236 4.985L2.46 4.985 2.46 0.028 2.236 0.028z" mask="url(#prefix__d)"/>
            <path fill="#1BC4D2" d="M2.46 4.985L2.684 4.985 2.684 0.028 2.46 0.028z" mask="url(#prefix__d)"/>
            <path fill="#1BC3D2" d="M2.684 4.985L2.907 4.985 2.907 0.028 2.684 0.028z" mask="url(#prefix__d)"/>
            <path fill="#1AC2D2" d="M2.907 4.985L3.131 4.985 3.131 0.028 2.907 0.028z" mask="url(#prefix__d)"/>
            <path fill="#1AC1D2" d="M3.131 4.985L3.355 4.985 3.355 0.028 3.131 0.028z" mask="url(#prefix__d)"/>
            <path fill="#1AC0D2" d="M3.355 4.985L3.579 4.985 3.579 0.028 3.355 0.028z" mask="url(#prefix__d)"/>
            <path fill="#19BFD2" d="M3.579 4.985L3.803 4.985 3.803 0.028 3.579 0.028z" mask="url(#prefix__d)"/>
            <path fill="#19BED2" d="M3.803 4.985L4.026 4.985 4.026 0.028 3.803 0.028z" mask="url(#prefix__d)"/>
            <path fill="#19BDD1" d="M4.026 4.985L4.25 4.985 4.25 0.028 4.026 0.028z" mask="url(#prefix__d)"/>
            <path fill="#18BCD1" d="M4.25 4.985L4.474 4.985 4.474 0.028 4.25 0.028z" mask="url(#prefix__d)"/>
            <path fill="#18BBD1" d="M4.474 4.985L4.698 4.985 4.698 0.028 4.474 0.028z" mask="url(#prefix__d)"/>
            <path fill="#17BAD1" d="M4.698 4.985L4.921 4.985 4.921 0.028 4.698 0.028z" mask="url(#prefix__d)"/>
            <path fill="#17B9D1" d="M4.921 4.985L5.145 4.985 5.145 0.028 4.921 0.028z" mask="url(#prefix__d)"/>
            <path fill="#17B8D1" d="M5.145 4.985L5.369 4.985 5.369 0.028 5.145 0.028z" mask="url(#prefix__d)"/>
            <path fill="#16B7D1" d="M5.369 4.985L5.592 4.985 5.592 0.028 5.369 0.028z" mask="url(#prefix__d)"/>
            <path fill="#16B6D1" d="M5.593 4.985L5.816 4.985 5.816 0.028 5.593 0.028z" mask="url(#prefix__d)"/>
            <path fill="#16B5D1" d="M5.816 4.985L6.04 4.985 6.04 0.028 5.816 0.028z" mask="url(#prefix__d)"/>
            <path fill="#15B4D0" d="M6.04 4.985L6.264 4.985 6.264 0.028 6.04 0.028z" mask="url(#prefix__d)"/>
            <path fill="#15B3D0" d="M6.264 4.985L6.488 4.985 6.488 0.028 6.264 0.028z" mask="url(#prefix__d)"/>
            <path fill="#15B2D0" d="M6.488 4.985L6.711 4.985 6.711 0.028 6.488 0.028z" mask="url(#prefix__d)"/>
            <path fill="#14B1D0" d="M6.711 4.985L6.935 4.985 6.935 0.028 6.711 0.028z" mask="url(#prefix__d)"/>
            <path fill="#14B0D0" d="M6.935 4.985L7.159 4.985 7.159 0.028 6.935 0.028z" mask="url(#prefix__d)"/>
            <path fill="#14AFD0" d="M7.159 4.985L7.383 4.985 7.383 0.028 7.159 0.028z" mask="url(#prefix__d)"/>
            <path fill="#13AED0" d="M7.383 4.985L7.606 4.985 7.606 0.028 7.383 0.028z" mask="url(#prefix__d)"/>
            <path fill="#13ADD0" d="M7.606 4.985L7.83 4.985 7.83 0.028 7.606 0.028z" mask="url(#prefix__d)"/>
            <path fill="#13ACCF" d="M7.83 4.985L8.054 4.985 8.054 0.028 7.83 0.028z" mask="url(#prefix__d)"/>
            <path fill="#12ABCF" d="M8.054 4.985L8.277 4.985 8.277 0.028 8.054 0.028z" mask="url(#prefix__d)"/>
            <path fill="#12AACF" d="M8.278 4.985L8.501 4.985 8.501 0.028 8.278 0.028z" mask="url(#prefix__d)"/>
            <path fill="#12A9CF" d="M8.501 4.985L8.725 4.985 8.725 0.028 8.501 0.028z" mask="url(#prefix__d)"/>
            <path fill="#11A8CF" d="M8.725 4.985L8.949 4.985 8.949 0.028 8.725 0.028z" mask="url(#prefix__d)"/>
            <path fill="#11A7CF" d="M8.949 4.985L9.173 4.985 9.173 0.028 8.949 0.028z" mask="url(#prefix__d)"/>
            <path fill="#11A6CF" d="M9.173 4.985L9.396 4.985 9.396 0.028 9.173 0.028z" mask="url(#prefix__d)"/>
            <path fill="#10A5CF" d="M9.396 4.985L9.62 4.985 9.62 0.028 9.396 0.028z" mask="url(#prefix__d)"/>
            <path fill="#10A4CE" d="M9.62 4.985L9.844 4.985 9.844 0.028 9.62 0.028z" mask="url(#prefix__d)"/>
            <path fill="#10A3CE" d="M9.844 4.985L10.068 4.985 10.068 0.028 9.844 0.028z" mask="url(#prefix__d)"/>
            <path fill="#0FA2CE" d="M10.068 4.985L10.291 4.985 10.291 0.028 10.068 0.028z" mask="url(#prefix__d)"/>
            <path fill="#0FA1CE" d="M10.291 4.985L10.515 4.985 10.515 0.028 10.291 0.028z" mask="url(#prefix__d)"/>
            <path fill="#0FA0CE" d="M10.515 4.985L10.739 4.985 10.739 0.028 10.515 0.028z" mask="url(#prefix__d)"/>
            <path fill="#0E9ECE" d="M10.739 4.985L10.963 4.985 10.963 0.028 10.739 0.028z" mask="url(#prefix__d)"/>
            <path fill="#0E9DCE" d="M10.963 4.985L11.186 4.985 11.186 0.028 10.963 0.028z" mask="url(#prefix__d)"/>
            <path fill="#0D9CCE" d="M11.186 4.985L11.41 4.985 11.41 0.028 11.186 0.028z" mask="url(#prefix__d)"/>
            <path fill="#0D9BCE" d="M11.41 4.985L11.634 4.985 11.634 0.028 11.41 0.028z" mask="url(#prefix__d)"/>
            <path fill="#0D9ACD" d="M11.634 4.985L11.858 4.985 11.858 0.028 11.634 0.028z" mask="url(#prefix__d)"/>
            <path fill="#0C99CD" d="M11.858 4.985L12.081 4.985 12.081 0.028 11.858 0.028z" mask="url(#prefix__d)"/>
            <path fill="#0C98CD" d="M12.081 4.985L12.305 4.985 12.305 0.028 12.081 0.028z" mask="url(#prefix__d)"/>
            <path fill="#0C97CD" d="M12.305 4.985L12.529 4.985 12.529 0.028 12.305 0.028z" mask="url(#prefix__d)"/>
            <path fill="#0B96CD" d="M12.529 4.985L12.753 4.985 12.753 0.028 12.529 0.028z" mask="url(#prefix__d)"/>
            <path fill="#0B95CD" d="M12.753 4.985L12.976 4.985 12.976 0.028 12.753 0.028z" mask="url(#prefix__d)"/>
            <path fill="#0B94CD" d="M12.977 4.985L13.2 4.985 13.2 0.028 12.977 0.028z" mask="url(#prefix__d)"/>
            <path fill="#0A93CD" d="M13.2 4.985L13.424 4.985 13.424 0.028 13.2 0.028z" mask="url(#prefix__d)"/>
            <path fill="#0A92CC" d="M13.424 4.985L13.648 4.985 13.648 0.028 13.424 0.028z" mask="url(#prefix__d)"/>
            <path fill="#0A91CC" d="M13.648 4.985L13.871 4.985 13.871 0.028 13.648 0.028z" mask="url(#prefix__d)"/>
            <path fill="#0990CC" d="M13.871 4.985L14.095 4.985 14.095 0.028 13.871 0.028z" mask="url(#prefix__d)"/>
            <path fill="#098FCC" d="M14.095 4.985L14.319 4.985 14.319 0.028 14.095 0.028z" mask="url(#prefix__d)"/>
            <path fill="#098ECC" d="M14.319 4.985L14.543 4.985 14.543 0.028 14.319 0.028z" mask="url(#prefix__d)"/>
            <path fill="#088DCC" d="M14.543 4.985L14.766 4.985 14.766 0.028 14.543 0.028z" mask="url(#prefix__d)"/>
            <path fill="#088CCC" d="M14.766 4.985L14.99 4.985 14.99 0.028 14.766 0.028z" mask="url(#prefix__d)"/>
            <path fill="#088BCC" d="M14.99 4.985L15.214 4.985 15.214 0.028 14.99 0.028z" mask="url(#prefix__d)"/>
            <path fill="#078ACC" d="M15.214 4.985L15.438 4.985 15.438 0.028 15.214 0.028z" mask="url(#prefix__d)"/>
            <path fill="#0789CB" d="M15.438 4.985L15.661 4.985 15.661 0.028 15.438 0.028z" mask="url(#prefix__d)"/>
            <path fill="#0788CB" d="M15.662 4.985L15.885 4.985 15.885 0.028 15.662 0.028z" mask="url(#prefix__d)"/>
            <path fill="#0687CB" d="M15.885 4.985L16.109 4.985 16.109 0.028 15.885 0.028z" mask="url(#prefix__d)"/>
            <path fill="#0686CB" d="M16.109 4.985L16.333 4.985 16.333 0.028 16.109 0.028z" mask="url(#prefix__d)"/>
            <path fill="#0685CB" d="M16.333 4.985L16.556 4.985 16.556 0.028 16.333 0.028z" mask="url(#prefix__d)"/>
            <path fill="#0584CB" d="M16.556 4.985L16.78 4.985 16.78 0.028 16.556 0.028z" mask="url(#prefix__d)"/>
            <path fill="#0583CB" d="M16.78 4.985L17.004 4.985 17.004 0.028 16.78 0.028z" mask="url(#prefix__d)"/>
            <path fill="#0482CB" d="M17.004 4.985L17.228 4.985 17.228 0.028 17.004 0.028z" mask="url(#prefix__d)"/>
            <path fill="#0481CA" d="M17.228 4.985L17.451 4.985 17.451 0.028 17.228 0.028z" mask="url(#prefix__d)"/>
            <path fill="#0480CA" d="M17.451 4.985L17.675 4.985 17.675 0.028 17.451 0.028z" mask="url(#prefix__d)"/>
            <path fill="#037FCA" d="M17.675 4.985L17.899 4.985 17.899 0.028 17.675 0.028z" mask="url(#prefix__d)"/>
            <path fill="#037ECA" d="M17.899 4.985L18.123 4.985 18.123 0.028 17.899 0.028z" mask="url(#prefix__d)"/>
            <path fill="#037DCA" d="M18.123 4.985L18.346 4.985 18.346 0.028 18.123 0.028z" mask="url(#prefix__d)"/>
            <path fill="#027CCA" d="M18.346 4.985L18.57 4.985 18.57 0.028 18.346 0.028z" mask="url(#prefix__d)"/>
            <path fill="#027BCA" d="M18.57 4.985L18.794 4.985 18.794 0.028 18.57 0.028z" mask="url(#prefix__d)"/>
            <path fill="#027ACA" d="M18.794 4.985L19.018 4.985 19.018 0.028 18.794 0.028z" mask="url(#prefix__d)"/>
            <path fill="#0179C9" d="M19.018 4.985L19.242 4.985 19.242 0.028 19.018 0.028z" mask="url(#prefix__d)"/>
            <path fill="#0178C9" d="M19.242 4.985L19.465 4.985 19.465 0.028 19.242 0.028z" mask="url(#prefix__d)"/>
            <path fill="#0177C9" d="M19.465 4.985L19.689 4.985 19.689 0.028 19.465 0.028z" mask="url(#prefix__d)"/>
            <path fill="#0076C9" d="M19.689 4.985L19.913 4.985 19.913 0.028 19.689 0.028z" mask="url(#prefix__d)"/>
            <path fill="#0075C9" d="M19.913 4.985L20.136 4.985 20.136.028 19.913.028zM20.136 4.984L21.988 4.984 21.988.028 20.136.028z" mask="url(#prefix__d)"/>
        </g>
        <path fill="url(#prefix__e)" d="M14 13L38 13 38 8 14 8z"/>
        <path fill="#25C9D1" d="M34 24.87c1.729 0 3.13 1.401 3.13 3.13 0 1.729-1.401 3.13-3.13 3.13-1.729 0-3.13-1.401-3.13-3.13 0-1.729 1.401-3.13 3.13-3.13M25 28c0 4.97 4.03 9 9 9s9-4.03 9-9-4.03-9-9-9-9 4.03-9 9"/>
    </g>
</svg>
